<?xml version="1.0" encoding="utf-8"?>
<!-- Generator: Adobe Illustrator 16.0.0, SVG Export Plug-In . SVG Version: 6.00 Build 0)  -->
<!DOCTYPE svg PUBLIC "-//W3C//DTD SVG 1.1//EN" "http://www.w3.org/Graphics/SVG/1.1/DTD/svg11.dtd">
<svg version="1.1" id="Layer_1" xmlns="http://www.w3.org/2000/svg" xmlns:xlink="http://www.w3.org/1999/xlink" x="0px" y="0px"
	 width="32px" height="32px" viewBox="16 16 32 32" enable-background="new 16 16 32 32" xml:space="preserve">
<g id="Apple_Solid_Background">
	<g>
		<circle fill="#010101" cx="32.042" cy="31.959" r="15.765"/>
		<path fill="#FFFFFF" d="M32.042,17.467c-7.99,0-14.493,6.501-14.493,14.492s6.501,14.492,14.493,14.492
			c7.99,0,14.492-6.502,14.492-14.492S40.032,17.467,32.042,17.467z M32.042,45.229c-7.318,0-13.271-5.953-13.271-13.271
			c0-7.317,5.954-13.271,13.271-13.271c7.317,0,13.272,5.954,13.272,13.271C45.314,39.277,39.36,45.229,32.042,45.229z"/>
	</g>
	<g id="style_2_5_">
		<g>
			<path fill="#FFFFFF" d="M39.609,35.062v-0.124c-1.485-0.793-2.292-1.954-2.292-3.638c0-1.361,0.605-2.549,1.712-3.315l0.05-0.024
				c-0.729-0.891-1.71-1.781-3.222-1.781c-1.059,0-1.938,1.015-3.4,1.015c-1.159,0-1.637-0.965-2.897-0.965
				c-2.619,0-5.213,2.301-5.213,5.295c0,1.583,0.528,4.035,1.712,6.162c0.856,1.562,1.914,2.576,3.098,2.576
				c0.855,0,1.864-0.768,3.072-0.768c1.059,0,2.041,0.693,2.996,0.693c2.292,0,4.408-2.92,4.408-4.874
				C39.635,35.21,39.609,35.138,39.609,35.062z"/>
			<path fill="#FFFFFF" d="M32.404,26.872c1.712-0.519,3.298-1.782,3.298-3.985c0-0.173-0.022-0.396-0.05-0.644l-0.025-0.1
				c-1.737,0.469-3.298,1.806-3.298,3.91c0,0.198,0.025,0.446,0.074,0.718L32.404,26.872L32.404,26.872z"/>
		</g>
	</g>
</g>
</svg>
