<?xml version="1.0" encoding="utf-8"?>
<!-- Generator: Adobe Illustrator 16.0.0, SVG Export Plug-In . SVG Version: 6.00 Build 0)  -->
<!DOCTYPE svg PUBLIC "-//W3C//DTD SVG 1.1//EN" "http://www.w3.org/Graphics/SVG/1.1/DTD/svg11.dtd">
<svg version="1.1" id="Layer_1" xmlns="http://www.w3.org/2000/svg" xmlns:xlink="http://www.w3.org/1999/xlink" x="0px" y="0px"
	 width="32px" height="32px" viewBox="16 16 32 32" enable-background="new 16 16 32 32" xml:space="preserve">
<g>
	<path fill="#010101" d="M32.001,16.314c-8.648,0-15.685,7.037-15.685,15.686c0,8.648,7.036,15.685,15.685,15.685
		S47.686,40.648,47.686,32C47.686,23.351,40.649,16.314,32.001,16.314z M32.001,46.363c-7.92,0-14.364-6.443-14.364-14.363
		s6.444-14.364,14.364-14.364c7.921,0,14.364,6.444,14.364,14.364S39.922,46.363,32.001,46.363z"/>
	<g id="style_2_2_">
		<g>
			<path fill="#010101" d="M39.466,35.087v-0.123c-1.479-0.788-2.28-1.945-2.28-3.619c0-1.354,0.604-2.537,1.705-3.299l0.05-0.024
				c-0.728-0.886-1.703-1.772-3.208-1.772c-1.053,0-1.929,1.009-3.383,1.009c-1.153,0-1.629-0.96-2.882-0.96
				c-2.606,0-5.187,2.29-5.187,5.269c0,1.575,0.526,4.013,1.704,6.132c0.853,1.551,1.904,2.56,3.083,2.56
				c0.851,0,1.854-0.763,3.057-0.763c1.052,0,2.03,0.689,2.981,0.689c2.281,0,4.387-2.905,4.387-4.848
				C39.492,35.234,39.466,35.161,39.466,35.087z"/>
			<path fill="#010101" d="M32.297,26.939c1.704-0.517,3.283-1.773,3.283-3.965c0-0.173-0.024-0.394-0.051-0.64l-0.024-0.099
				c-1.729,0.467-3.282,1.796-3.282,3.89c0,0.197,0.025,0.443,0.074,0.714L32.297,26.939L32.297,26.939z"/>
		</g>
	</g>
</g>
</svg>
