<?xml version="1.0" encoding="utf-8"?>
<!-- Generator: Adobe Illustrator 16.0.0, SVG Export Plug-In . SVG Version: 6.00 Build 0)  -->
<!DOCTYPE svg PUBLIC "-//W3C//DTD SVG 1.1//EN" "http://www.w3.org/Graphics/SVG/1.1/DTD/svg11.dtd">
<svg version="1.1" id="Layer_1" xmlns="http://www.w3.org/2000/svg" xmlns:xlink="http://www.w3.org/1999/xlink" x="0px" y="0px"
	 width="32px" height="32px" viewBox="16 16 32 32" enable-background="new 16 16 32 32" xml:space="preserve">
<g>
	<path d="M32.06,16.273c-8.603,0-15.602,6.999-15.602,15.602c0,8.602,6.999,15.603,15.602,15.603
		c8.602,0,15.601-7.001,15.601-15.603C47.661,23.273,40.661,16.273,32.06,16.273z M32.06,46.163
		c-7.878,0-14.288-6.409-14.288-14.288c0-7.878,6.41-14.288,14.288-14.288c7.878,0,14.288,6.41,14.288,14.288
		C46.348,39.754,39.938,46.163,32.06,46.163z"/>
	<path d="M36.375,32.696l0.43-3.328h-3.296v-2.125c0-0.964,0.27-1.62,1.65-1.62l1.76-0.001v-2.976
		c-0.303-0.041-1.348-0.131-2.566-0.131c-2.541,0-4.279,1.551-4.279,4.399v2.454h-2.875v3.328h2.875v8.539h3.435v-8.539H36.375z"/>
</g>
</svg>
