<?xml version="1.0" encoding="utf-8"?>
<!-- Generator: Adobe Illustrator 16.0.0, SVG Export Plug-In . SVG Version: 6.00 Build 0)  -->
<!DOCTYPE svg PUBLIC "-//W3C//DTD SVG 1.1//EN" "http://www.w3.org/Graphics/SVG/1.1/DTD/svg11.dtd">
<svg version="1.1" id="Layer_1" xmlns="http://www.w3.org/2000/svg" xmlns:xlink="http://www.w3.org/1999/xlink" x="0px" y="0px"
	 width="32px" height="32px" viewBox="16 16 32 32" enable-background="new 16 16 32 32" xml:space="preserve">
<path d="M31.997,16.256c-8.683,0-15.747,7.064-15.747,15.747S23.314,47.75,31.997,47.75s15.747-7.065,15.747-15.747
	C47.744,23.32,40.68,16.256,31.997,16.256z M31.997,46.424c-7.952,0-14.421-6.469-14.421-14.421c0-7.951,6.469-14.421,14.421-14.421
	c7.952,0,14.421,6.47,14.421,14.421C46.418,39.955,39.949,46.424,31.997,46.424z"/>
<path d="M26.31,23.606h12.07c1.146,0,2.084,0.938,2.084,2.084v12.071c0,1.146-0.938,2.083-2.084,2.083H26.31
	c-1.147,0-2.085-0.937-2.085-2.083V25.691C24.225,24.544,25.163,23.606,26.31,23.606z M36.056,25.41
	c-0.404,0-0.733,0.33-0.733,0.732v1.749c0,0.402,0.329,0.731,0.733,0.731h1.835c0.402,0,0.73-0.329,0.73-0.731v-1.749
	c0-0.403-0.328-0.732-0.73-0.732H36.056z M38.628,30.474H37.2c0.134,0.442,0.209,0.909,0.209,1.395c0,2.699-2.261,4.89-5.049,4.89
	c-2.788,0-5.049-2.19-5.049-4.89c0-0.485,0.074-0.952,0.208-1.395h-1.49v6.859c0,0.355,0.29,0.645,0.645,0.645h11.308
	c0.355,0,0.645-0.289,0.645-0.645L38.628,30.474L38.628,30.474z M32.36,28.531c-1.8,0-3.26,1.415-3.26,3.161
	c0,1.745,1.46,3.161,3.26,3.161c1.802,0,3.262-1.416,3.262-3.161C35.622,29.945,34.162,28.531,32.36,28.531z"/>
</svg>
