<?xml version="1.0" encoding="utf-8"?>
<!-- Generator: Adobe Illustrator 16.0.0, SVG Export Plug-In . SVG Version: 6.00 Build 0)  -->
<!DOCTYPE svg PUBLIC "-//W3C//DTD SVG 1.1//EN" "http://www.w3.org/Graphics/SVG/1.1/DTD/svg11.dtd">
<svg version="1.1" id="Layer_1" xmlns="http://www.w3.org/2000/svg" xmlns:xlink="http://www.w3.org/1999/xlink" x="0px" y="0px"
	 width="32px" height="32px" viewBox="16 16 32 32" enable-background="new 16 16 32 32" xml:space="preserve">
<g>
	<g>
		<circle cx="31.923" cy="31.973" r="15.775"/>
		<path fill="#FFFFFF" d="M31.923,17.472c-7.996,0-14.501,6.506-14.501,14.501s6.505,14.5,14.501,14.5
			c7.996,0,14.501-6.506,14.501-14.5C46.424,23.978,39.919,17.472,31.923,17.472z M31.923,45.253c-7.322,0-13.28-5.957-13.28-13.28
			c0-7.322,5.958-13.28,13.28-13.28c7.323,0,13.279,5.958,13.279,13.28C45.202,39.296,39.246,45.253,31.923,45.253z"/>
	</g>
	<path fill="#FFFFFF" d="M41.755,26.595c-0.684,0.303-1.418,0.508-2.188,0.6c0.787-0.471,1.392-1.218,1.675-2.107
		c-0.735,0.437-1.548,0.754-2.418,0.925c-0.696-0.741-1.686-1.203-2.781-1.203c-2.104,0-3.81,1.705-3.81,3.808
		c0,0.299,0.035,0.589,0.099,0.868c-3.165-0.158-5.971-1.674-7.85-3.979c-0.327,0.563-0.515,1.218-0.515,1.916
		c0,1.321,0.672,2.488,1.694,3.17c-0.625-0.02-1.212-0.193-1.725-0.477v0.047c0,1.845,1.312,3.385,3.054,3.734
		c-0.319,0.088-0.656,0.135-1.003,0.135c-0.245,0-0.484-0.025-0.716-0.069c0.484,1.514,1.891,2.614,3.557,2.646
		c-1.302,1.021-2.945,1.63-4.731,1.63c-0.307,0-0.609-0.02-0.907-0.052c1.685,1.078,3.688,1.709,5.839,1.709
		c7.006,0,10.837-5.803,10.837-10.836c0-0.165-0.005-0.329-0.011-0.493C40.599,28.03,41.243,27.358,41.755,26.595z"/>
</g>
</svg>
