<?xml version="1.0" encoding="utf-8"?>
<!-- Generator: Adobe Illustrator 16.0.0, SVG Export Plug-In . SVG Version: 6.00 Build 0)  -->
<!DOCTYPE svg PUBLIC "-//W3C//DTD SVG 1.1//EN" "http://www.w3.org/Graphics/SVG/1.1/DTD/svg11.dtd">
<svg version="1.1" id="Layer_1" xmlns="http://www.w3.org/2000/svg" xmlns:xlink="http://www.w3.org/1999/xlink" x="0px" y="0px"
	 width="32px" height="32px" viewBox="16 16 32 32" enable-background="new 16 16 32 32" xml:space="preserve">
<g id="Twitter_Solid">
	<path d="M32.041,16.274c-8.671,0-15.726,7.055-15.726,15.726s7.055,15.727,15.726,15.727S47.768,40.671,47.768,32
		S40.712,16.274,32.041,16.274z M32.041,46.402c-7.941,0-14.402-6.461-14.402-14.402c0-7.941,6.461-14.402,14.402-14.402
		c7.941,0,14.402,6.461,14.402,14.402C46.443,39.941,39.982,46.402,32.041,46.402z"/>
	<path d="M41.844,26.638c-0.683,0.302-1.415,0.506-2.181,0.598c0.783-0.47,1.387-1.214,1.669-2.1
		c-0.733,0.435-1.545,0.751-2.41,0.922c-0.693-0.739-1.681-1.199-2.772-1.199c-2.097,0-3.797,1.7-3.797,3.797
		c0,0.298,0.033,0.587,0.098,0.865c-3.155-0.158-5.953-1.669-7.826-3.968c-0.326,0.562-0.514,1.214-0.514,1.91
		c0,1.317,0.67,2.48,1.688,3.161c-0.622-0.019-1.208-0.191-1.72-0.475v0.047c0,1.84,1.31,3.375,3.045,3.723
		c-0.319,0.087-0.654,0.135-1,0.135c-0.245,0-0.483-0.025-0.714-0.07c0.482,1.51,1.885,2.605,3.546,2.637
		c-1.299,1.019-2.936,1.625-4.716,1.625c-0.306,0-0.608-0.018-0.905-0.052c1.681,1.076,3.676,1.704,5.821,1.704
		c6.984,0,10.803-5.784,10.803-10.803c0-0.164-0.006-0.327-0.011-0.492C40.689,28.068,41.334,27.4,41.844,26.638z"/>
</g>
</svg>
