<?xml version="1.0" encoding="utf-8"?>
<!-- Generator: Adobe Illustrator 16.0.0, SVG Export Plug-In . SVG Version: 6.00 Build 0)  -->
<!DOCTYPE svg PUBLIC "-//W3C//DTD SVG 1.1//EN" "http://www.w3.org/Graphics/SVG/1.1/DTD/svg11.dtd">
<svg version="1.1" id="Layer_1" xmlns="http://www.w3.org/2000/svg" xmlns:xlink="http://www.w3.org/1999/xlink" x="0px" y="0px"
	 width="32px" height="32px" viewBox="16 16 32 32" enable-background="new 16 16 32 32" xml:space="preserve">
<g>
	<g>
		<circle cx="32.028" cy="31.972" r="15.656"/>
		<path fill="#FFFFFF" d="M32.028,17.579c-7.936,0-14.392,6.457-14.392,14.393c0,7.936,6.457,14.392,14.392,14.392
			c7.936,0,14.392-6.456,14.392-14.392C46.42,24.036,39.964,17.579,32.028,17.579z M32.028,45.152
			c-7.267,0-13.181-5.913-13.181-13.18c0-7.268,5.914-13.181,13.181-13.181c7.268,0,13.18,5.914,13.18,13.181
			C45.209,39.239,39.296,45.152,32.028,45.152z"/>
	</g>
	<g>
		<path fill="#FFFFFF" d="M30.595,21.645h-1.1l-0.742,2.851l-0.771-2.851h-1.145c0.229,0.672,0.469,1.35,0.698,2.023
			c0.348,1.013,0.567,1.776,0.665,2.298v2.941h1.088v-2.941L30.595,21.645z M33.503,27.154v-1.896c0-0.578-0.1-1-0.306-1.274
			c-0.271-0.37-0.652-0.555-1.144-0.555c-0.488,0-0.871,0.186-1.142,0.555c-0.208,0.274-0.308,0.697-0.308,1.274v1.896
			c0,0.576,0.1,1.002,0.308,1.274c0.271,0.368,0.653,0.554,1.142,0.554c0.491,0,0.873-0.186,1.144-0.554
			C33.403,28.156,33.503,27.73,33.503,27.154z M32.521,27.339c0,0.5-0.153,0.751-0.468,0.751c-0.316,0-0.468-0.251-0.468-0.751
			v-2.277c0-0.501,0.151-0.75,0.468-0.75s0.468,0.25,0.468,0.75V27.339z M37.128,28.907v-5.412h-0.98v4.136
			c-0.218,0.307-0.424,0.459-0.62,0.459c-0.131,0-0.209-0.079-0.229-0.23c-0.012-0.032-0.012-0.151-0.012-0.381v-3.984H34.31v4.279
			c0,0.382,0.031,0.642,0.086,0.805c0.098,0.274,0.316,0.403,0.632,0.403c0.358,0,0.729-0.219,1.121-0.667v0.591L37.128,28.907
			L37.128,28.907z"/>
		<g>
			<path fill="#FFFFFF" d="M37.654,34.401c-0.323,0-0.486,0.249-0.486,0.744v0.496h0.972v-0.496
				C38.139,34.65,37.977,34.401,37.654,34.401z"/>
			<path fill="#FFFFFF" d="M34.054,34.401c-0.159,0-0.321,0.076-0.484,0.237v3.264c0.163,0.162,0.325,0.239,0.484,0.239
				c0.279,0,0.422-0.239,0.422-0.723v-2.287C34.476,34.65,34.333,34.401,34.054,34.401z"/>
			<path fill="#FFFFFF" d="M40.027,31.679c-0.195-0.854-0.895-1.483-1.735-1.577c-1.991-0.223-4.008-0.223-6.014-0.223
				c-2.007,0-4.021,0-6.013,0.223c-0.842,0.094-1.54,0.724-1.735,1.577c-0.28,1.218-0.283,2.542-0.283,3.796
				c0,1.252,0,2.579,0.279,3.796c0.197,0.854,0.895,1.483,1.736,1.577c1.991,0.222,4.007,0.223,6.014,0.222
				c2.005,0.001,4.022,0,6.014-0.222c0.84-0.094,1.539-0.724,1.735-1.577c0.281-1.217,0.282-2.544,0.282-3.796
				C40.307,34.222,40.308,32.897,40.027,31.679z M28.827,32.773h-1.162v6.176h-1.079v-6.176h-1.143v-1.012h3.384L28.827,32.773
				L28.827,32.773z M31.76,38.949h-0.971v-0.583c-0.386,0.441-0.751,0.657-1.109,0.657c-0.313,0-0.528-0.127-0.625-0.399
				c-0.053-0.161-0.085-0.416-0.085-0.796v-4.235h0.97v3.944c0,0.226,0,0.345,0.009,0.376c0.023,0.151,0.097,0.229,0.227,0.229
				c0.194,0,0.398-0.151,0.613-0.454v-4.095h0.971V38.949z M35.445,37.344c0,0.494-0.032,0.852-0.097,1.079
				c-0.13,0.398-0.389,0.602-0.777,0.602c-0.344,0-0.677-0.191-1.002-0.592v0.519H32.6v-7.189h0.97v2.346
				c0.314-0.385,0.647-0.579,1.002-0.579c0.389,0,0.648,0.202,0.777,0.604c0.064,0.215,0.097,0.569,0.097,1.076V37.344z
				 M39.109,36.449h-1.941v0.948c0,0.495,0.162,0.744,0.495,0.744c0.238,0,0.379-0.132,0.435-0.391
				c0.01-0.051,0.021-0.267,0.021-0.656h0.99v0.142c0,0.312-0.012,0.526-0.021,0.625c-0.032,0.215-0.109,0.41-0.226,0.583
				c-0.269,0.389-0.668,0.58-1.174,0.58c-0.509,0-0.895-0.183-1.175-0.548c-0.207-0.266-0.312-0.691-0.312-1.26v-1.876
				c0-0.572,0.092-0.992,0.3-1.264c0.278-0.366,0.667-0.547,1.162-0.547c0.487,0,0.874,0.181,1.145,0.547
				c0.203,0.271,0.302,0.69,0.302,1.264V36.449L39.109,36.449z"/>
		</g>
	</g>
</g>
</svg>
