<?xml version="1.0" encoding="utf-8"?>
<!-- Generator: Adobe Illustrator 16.0.0, SVG Export Plug-In . SVG Version: 6.00 Build 0)  -->
<!DOCTYPE svg PUBLIC "-//W3C//DTD SVG 1.1//EN" "http://www.w3.org/Graphics/SVG/1.1/DTD/svg11.dtd">
<svg version="1.1" id="Layer_1" xmlns="http://www.w3.org/2000/svg" xmlns:xlink="http://www.w3.org/1999/xlink" x="0px" y="0px"
	 width="32px" height="32px" viewBox="16 16 32 32" enable-background="new 16 16 32 32" xml:space="preserve">
<g id="Email_Solid_Background">
	<circle fill="#010101" cx="32.065" cy="32" r="15.684"/>
	<path fill="#FFFFFF" d="M32.065,17.583c-7.95,0-14.418,6.467-14.418,14.417c0,7.951,6.468,14.416,14.417,14.416
		S46.482,39.951,46.482,32C46.482,24.051,40.016,17.583,32.065,17.583z M32.065,45.204c-7.28,0-13.204-5.924-13.204-13.204
		s5.923-13.203,13.204-13.203c7.281,0,13.203,5.923,13.203,13.203C45.268,39.281,39.346,45.204,32.065,45.204z"/>
	<path fill="none" stroke="#010101" stroke-miterlimit="10" d="M39.644,38.211H24.487c-0.595,0-1.082-0.487-1.082-1.083v-9.341
		c0-0.594,0.487-1.082,1.082-1.082h15.156c0.595,0,1.081,0.488,1.081,1.082v9.341C40.725,37.722,40.238,38.211,39.644,38.211z"/>
	<path fill="#FFFFFF" d="M32.065,32.069l8.609-4.536c-0.117-0.47-0.526-0.829-1.03-0.829H24.487c-0.506,0-0.914,0.358-1.03,0.829
		L32.065,32.069z"/>
	<polygon fill="#FFFFFF" points="32.005,32.937 29.848,31.802 25.286,38.211 38.832,38.211 34.271,31.808 32.065,32.972 	"/>
	<path fill="#FFFFFF" d="M34.979,31.435l4.807,6.748c0.525-0.074,0.939-0.509,0.939-1.054v-8.722L34.979,31.435z"/>
	<path fill="#FFFFFF" d="M24.332,38.18l4.807-6.752l-5.734-3.021v8.721C23.405,37.668,23.812,38.1,24.332,38.18z"/>
</g>
</svg>
