<?xml version="1.0" encoding="utf-8"?>
<!-- Generator: Adobe Illustrator 16.0.0, SVG Export Plug-In . SVG Version: 6.00 Build 0)  -->
<!DOCTYPE svg PUBLIC "-//W3C//DTD SVG 1.1//EN" "http://www.w3.org/Graphics/SVG/1.1/DTD/svg11.dtd">
<svg version="1.1" id="Layer_1" xmlns="http://www.w3.org/2000/svg" xmlns:xlink="http://www.w3.org/1999/xlink" x="0px" y="0px"
	 width="32px" height="32px" viewBox="16 16 32 32" enable-background="new 16 16 32 32" xml:space="preserve">
<path fill="#010101" d="M32,16.419c-8.591,0-15.581,6.99-15.581,15.581S23.409,47.581,32,47.581c8.591,0,15.58-6.99,15.58-15.581
	S40.59,16.419,32,16.419z M32,46.27c-7.868,0-14.269-6.402-14.269-14.27c0-7.868,6.401-14.269,14.269-14.269
	c7.866,0,14.269,6.4,14.269,14.269C46.269,39.867,39.866,46.27,32,46.27z"/>
<path fill="none" stroke="#010101" stroke-miterlimit="10" d="M39.527,38.168H24.473c-0.591,0-1.076-0.483-1.076-1.074v-9.279
	c0-0.591,0.484-1.075,1.076-1.075h15.055c0.591,0,1.075,0.484,1.075,1.075v9.28C40.603,37.685,40.119,38.168,39.527,38.168z"/>
<g>
	<path fill="#010101" d="M32,32.068l8.551-4.506c-0.116-0.467-0.522-0.823-1.023-0.823H24.473c-0.502,0-0.908,0.356-1.024,0.823
		L32,32.068z"/>
	<polygon fill="#010101" points="31.94,32.931 29.798,31.802 25.266,38.168 38.721,38.168 34.189,31.809 32,32.964 	"/>
	<path fill="#010101" d="M34.895,31.438l4.775,6.703c0.521-0.072,0.933-0.505,0.933-1.045v-8.667L34.895,31.438z"/>
	<path fill="#010101" d="M24.317,38.138l4.775-6.707l-5.697-3.002v8.665C23.397,37.631,23.802,38.059,24.317,38.138z"/>
</g>
</svg>
