<?xml version="1.0" encoding="utf-8"?>
<!-- Generator: Adobe Illustrator 16.0.0, SVG Export Plug-In . SVG Version: 6.00 Build 0)  -->
<!DOCTYPE svg PUBLIC "-//W3C//DTD SVG 1.1//EN" "http://www.w3.org/Graphics/SVG/1.1/DTD/svg11.dtd">
<svg version="1.1" id="Layer_1" xmlns="http://www.w3.org/2000/svg" xmlns:xlink="http://www.w3.org/1999/xlink" x="0px" y="0px"
	 width="32px" height="32px" viewBox="16 16 32 32" enable-background="new 16 16 32 32" xml:space="preserve">
<g>
	<g>
		<circle cx="31.966" cy="32.034" r="15.669"/>
		<path fill="#FFFFFF" d="M31.966,17.631c-7.942,0-14.403,6.461-14.403,14.403c0,7.941,6.461,14.403,14.403,14.403
			c7.941,0,14.404-6.462,14.404-14.403C46.37,24.092,39.907,17.631,31.966,17.631z M31.966,45.226
			c-7.272,0-13.19-5.919-13.19-13.191c0-7.273,5.918-13.19,13.19-13.19c7.273,0,13.191,5.917,13.191,13.19
			C45.157,39.307,39.239,45.226,31.966,45.226z"/>
	</g>
	<path fill="#FFFFFF" d="M26.37,24.137h12.009c1.142,0,2.074,0.933,2.074,2.074V38.22c0,1.142-0.933,2.074-2.074,2.074H26.37
		c-1.141,0-2.075-0.933-2.075-2.074V26.211C24.294,25.07,25.229,24.137,26.37,24.137z M36.066,25.931
		c-0.402,0-0.729,0.329-0.729,0.729v1.74c0,0.401,0.326,0.729,0.729,0.729h1.826c0.399,0,0.727-0.328,0.727-0.729v-1.74
		c0-0.4-0.327-0.729-0.727-0.729H36.066z M38.627,30.969h-1.422c0.135,0.44,0.208,0.904,0.208,1.387
		c0,2.687-2.249,4.865-5.024,4.865c-2.771,0-5.022-2.179-5.022-4.865c0-0.483,0.074-0.948,0.208-1.387h-1.483v6.825
		c0,0.355,0.289,0.642,0.642,0.642h11.252c0.354,0,0.642-0.286,0.642-0.642V30.969z M32.389,29.037
		c-1.791,0-3.245,1.407-3.245,3.145c0,1.736,1.454,3.144,3.245,3.144c1.794,0,3.245-1.408,3.245-3.144
		C35.634,30.443,34.183,29.037,32.389,29.037z"/>
</g>
</svg>
