<?xml version="1.0" encoding="utf-8"?>
<!-- Generator: Adobe Illustrator 16.0.0, SVG Export Plug-In . SVG Version: 6.00 Build 0)  -->
<!DOCTYPE svg PUBLIC "-//W3C//DTD SVG 1.1//EN" "http://www.w3.org/Graphics/SVG/1.1/DTD/svg11.dtd">
<svg version="1.1" id="Layer_1" xmlns="http://www.w3.org/2000/svg" xmlns:xlink="http://www.w3.org/1999/xlink" x="0px" y="0px"
	 width="32px" height="32px" viewBox="16 16 32 32" enable-background="new 16 16 32 32" xml:space="preserve">
<g>
	<g>
		<circle cx="31.997" cy="31.996" r="15.497"/>
		<path fill="#FFFFFF" d="M31.997,17.75c-7.855,0-14.246,6.391-14.246,14.246s6.391,14.246,14.246,14.246
			c7.854,0,14.246-6.391,14.246-14.246S39.852,17.75,31.997,17.75z M31.997,45.042c-7.194,0-13.047-5.853-13.047-13.046
			s5.853-13.046,13.047-13.046c7.194,0,13.047,5.853,13.047,13.046S39.191,45.042,31.997,45.042z"/>
	</g>
	<g>
		<path fill="#FFFFFF" d="M21.877,35.263c0.046,0,0.086-0.038,0.092-0.093l0.254-2.011L21.97,31.1
			c-0.007-0.054-0.047-0.092-0.093-0.092c-0.048,0-0.089,0.039-0.096,0.092l-0.222,2.06l0.222,2.011
			C21.788,35.223,21.829,35.263,21.877,35.263z"/>
		<path fill="#FFFFFF" d="M21.039,34.498c0.046,0,0.083-0.037,0.09-0.091l0.196-1.249l-0.196-1.275
			c-0.007-0.052-0.044-0.089-0.09-0.089c-0.048,0-0.085,0.037-0.092,0.09l-0.165,1.274l0.165,1.249
			C20.954,34.461,20.991,34.498,21.039,34.498z"/>
		<path fill="#FFFFFF" d="M22.878,30.715c-0.006-0.065-0.054-0.113-0.114-0.113c-0.059,0-0.107,0.048-0.112,0.113l-0.212,2.443
			l0.212,2.352c0.005,0.065,0.053,0.112,0.112,0.112c0.06,0,0.108-0.047,0.114-0.112l0.24-2.352L22.878,30.715z"/>
		<path fill="#FFFFFF" d="M23.662,35.717c0.07,0,0.126-0.057,0.133-0.132l0.227-2.427l-0.227-2.51
			c-0.006-0.075-0.062-0.132-0.133-0.132c-0.07,0-0.127,0.057-0.133,0.133l-0.2,2.509l0.2,2.427
			C23.534,35.66,23.592,35.717,23.662,35.717z"/>
		<path fill="#FFFFFF" d="M24.565,35.756c0.081,0,0.146-0.064,0.153-0.151v0.001l0.213-2.447l-0.213-2.329
			c-0.007-0.085-0.072-0.151-0.153-0.151c-0.082,0-0.146,0.066-0.152,0.152l-0.189,2.329l0.189,2.445
			C24.419,35.691,24.483,35.756,24.565,35.756z"/>
		<path fill="#FFFFFF" d="M25.849,33.159l-0.201-3.786c-0.005-0.096-0.08-0.173-0.172-0.173c-0.091,0-0.166,0.077-0.171,0.173
			l-0.177,3.786l0.177,2.446c0.005,0.096,0.08,0.171,0.171,0.171c0.092,0,0.167-0.075,0.172-0.171l0,0L25.849,33.159z"/>
		<path fill="#FFFFFF" d="M26.396,35.781c0.101,0,0.185-0.084,0.19-0.19v0.002l0.187-2.434l-0.187-4.653
			c-0.005-0.107-0.089-0.19-0.19-0.19c-0.103,0-0.187,0.083-0.192,0.19l-0.165,4.653l0.166,2.433
			C26.209,35.697,26.292,35.781,26.396,35.781z"/>
		<path fill="#FFFFFF" d="M27.322,27.908c-0.114,0-0.206,0.093-0.211,0.211l-0.153,5.041l0.153,2.405
			c0.005,0.118,0.097,0.211,0.211,0.211c0.113,0,0.206-0.093,0.209-0.211v0.002l0.175-2.407l-0.175-5.041
			C27.527,28,27.435,27.908,27.322,27.908z"/>
		<path fill="#FFFFFF" d="M28.254,35.781c0.126,0,0.225-0.101,0.229-0.23v0.002l0.161-2.393l-0.161-5.21
			c-0.005-0.129-0.104-0.23-0.229-0.23c-0.125,0-0.226,0.102-0.228,0.23l-0.145,5.21l0.145,2.393
			C28.027,35.681,28.129,35.781,28.254,35.781z"/>
		<path fill="#FFFFFF" d="M29.195,35.778c0.134,0,0.244-0.11,0.249-0.25v0.001l0.147-2.369l-0.147-5.077
			c-0.005-0.14-0.114-0.25-0.249-0.25c-0.136,0-0.245,0.11-0.25,0.25l-0.13,5.077l0.131,2.369
			C28.95,35.668,29.06,35.778,29.195,35.778z"/>
		<path fill="#FFFFFF" d="M30.544,33.16l-0.134-4.892c-0.003-0.151-0.121-0.27-0.268-0.27c-0.146,0-0.265,0.119-0.268,0.271
			l-0.121,4.891l0.121,2.355c0.003,0.148,0.122,0.268,0.268,0.268c0.147,0,0.265-0.119,0.268-0.27v0.002L30.544,33.16z"/>
		<path fill="#FFFFFF" d="M31.097,35.787c0.156,0,0.285-0.13,0.287-0.289V35.5l0.123-2.339l-0.123-5.821
			c-0.002-0.16-0.131-0.29-0.287-0.29c-0.156,0-0.285,0.13-0.287,0.29l-0.108,5.819l0.109,2.341
			C30.813,35.658,30.941,35.787,31.097,35.787z"/>
		<path fill="#FFFFFF" d="M32.049,26.503c-0.168,0-0.305,0.14-0.307,0.31l-0.126,6.349l0.126,2.305
			c0.002,0.168,0.139,0.307,0.307,0.307c0.166,0,0.305-0.139,0.305-0.311v0.004l0.138-2.305l-0.138-6.349
			C32.354,26.642,32.215,26.503,32.049,26.503z"/>
		<path fill="#FFFFFF" d="M32.918,35.789c0.008,0.001,7.67,0.005,7.719,0.005c1.54,0,2.786-1.261,2.786-2.819
			c0-1.556-1.246-2.818-2.786-2.818c-0.382,0-0.745,0.078-1.076,0.219c-0.222-2.541-2.326-4.533-4.895-4.533
			c-0.626,0-1.238,0.125-1.779,0.337c-0.211,0.082-0.268,0.167-0.269,0.331v8.945C32.621,35.629,32.752,35.773,32.918,35.789z"/>
	</g>
</g>
</svg>
