<?xml version="1.0" encoding="utf-8"?>
<!-- Generator: Adobe Illustrator 16.0.0, SVG Export Plug-In . SVG Version: 6.00 Build 0)  -->
<!DOCTYPE svg PUBLIC "-//W3C//DTD SVG 1.1//EN" "http://www.w3.org/Graphics/SVG/1.1/DTD/svg11.dtd">
<svg version="1.1" id="Layer_1" xmlns="http://www.w3.org/2000/svg" xmlns:xlink="http://www.w3.org/1999/xlink" x="0px" y="0px"
	 width="32px" height="32px" viewBox="16 16 32 32" enable-background="new 16 16 32 32" xml:space="preserve">
<g>
	<g>
		<path d="M22.719,35.271c0.046,0,0.086-0.039,0.093-0.094l0.256-2.032l-0.255-2.08c-0.008-0.054-0.048-0.094-0.094-0.094
			c-0.049,0-0.091,0.041-0.097,0.094l-0.224,2.08l0.224,2.031C22.629,35.231,22.67,35.271,22.719,35.271z"/>
		<path d="M21.873,34.498c0.046,0,0.084-0.036,0.091-0.09l0.198-1.265l-0.198-1.287c-0.007-0.052-0.045-0.09-0.091-0.09
			c-0.048,0-0.086,0.039-0.093,0.091l-0.167,1.286l0.167,1.264C21.787,34.461,21.824,34.498,21.873,34.498z"/>
		<path d="M23.73,30.678c-0.006-0.065-0.055-0.114-0.114-0.114c-0.06,0-0.109,0.048-0.114,0.114l-0.214,2.466l0.214,2.377
			c0.005,0.065,0.054,0.113,0.114,0.113c0.06,0,0.108-0.048,0.114-0.113l0.242-2.377L23.73,30.678z"/>
		<path d="M24.521,35.729c0.071,0,0.127-0.057,0.134-0.134l0.229-2.451l-0.229-2.535c-0.007-0.076-0.063-0.133-0.134-0.133
			c-0.071,0-0.129,0.057-0.134,0.134l-0.203,2.535l0.203,2.45C24.393,35.673,24.451,35.729,24.521,35.729z"/>
		<path d="M25.435,35.77c0.082,0,0.147-0.065,0.154-0.153l-0.001,0.001l0.216-2.473l-0.216-2.352
			c-0.006-0.086-0.072-0.154-0.153-0.154c-0.083,0-0.149,0.067-0.154,0.154l-0.191,2.351l0.191,2.472
			C25.286,35.705,25.351,35.77,25.435,35.77z"/>
		<path d="M26.73,33.146l-0.203-3.824c-0.005-0.097-0.081-0.174-0.174-0.174c-0.092,0-0.167,0.077-0.173,0.174l-0.179,3.824
			l0.179,2.472c0.006,0.096,0.081,0.172,0.173,0.172c0.093,0,0.168-0.075,0.174-0.172l0,0L26.73,33.146z"/>
		<path d="M27.284,35.795c0.103,0,0.187-0.085,0.191-0.193v0.002l0.189-2.457l-0.189-4.7c-0.005-0.108-0.089-0.193-0.191-0.193
			c-0.104,0-0.188,0.084-0.194,0.193l-0.166,4.7l0.167,2.456C27.095,35.71,27.179,35.795,27.284,35.795z"/>
		<path d="M28.218,27.842c-0.114,0-0.208,0.094-0.213,0.214l-0.154,5.091l0.154,2.431c0.005,0.118,0.099,0.211,0.213,0.211
			s0.208-0.092,0.212-0.212v0.002l0.176-2.432l-0.176-5.091C28.426,27.936,28.333,27.842,28.218,27.842z"/>
		<path d="M29.16,35.795c0.126,0,0.227-0.102,0.232-0.232v0.001l0.162-2.416l-0.162-5.264c-0.005-0.131-0.106-0.233-0.232-0.233
			c-0.127,0-0.229,0.102-0.231,0.233l-0.146,5.264l0.146,2.417C28.932,35.693,29.033,35.795,29.16,35.795z"/>
		<path d="M30.11,35.793c0.136,0,0.247-0.112,0.25-0.254v0.001l0.149-2.393l-0.149-5.129c-0.004-0.142-0.114-0.253-0.25-0.253
			c-0.137,0-0.248,0.112-0.251,0.253l-0.131,5.129l0.132,2.392C29.863,35.681,29.974,35.793,30.11,35.793z"/>
		<path d="M31.474,33.148l-0.136-4.942c-0.003-0.153-0.123-0.272-0.27-0.272c-0.148,0-0.268,0.12-0.271,0.273l-0.122,4.941
			l0.122,2.379c0.003,0.15,0.123,0.271,0.271,0.271c0.148,0,0.267-0.121,0.27-0.274v0.003L31.474,33.148z"/>
		<path d="M32.032,35.802c0.157,0,0.288-0.132,0.29-0.292v0.001l0.123-2.361l-0.123-5.881c-0.003-0.162-0.133-0.292-0.29-0.292
			s-0.287,0.131-0.29,0.293l-0.11,5.878l0.11,2.364C31.745,35.67,31.875,35.802,32.032,35.802z"/>
		<path d="M32.993,26.423c-0.17,0-0.308,0.141-0.311,0.312l-0.127,6.414l0.128,2.326c0.002,0.17,0.14,0.31,0.31,0.31
			c0.168,0,0.308-0.14,0.309-0.312v0.003l0.138-2.326l-0.138-6.414C33.301,26.563,33.16,26.423,32.993,26.423z"/>
		<path d="M33.871,35.804c0.008,0.001,7.747,0.005,7.798,0.005c1.554,0,2.812-1.275,2.812-2.848c0-1.573-1.26-2.847-2.812-2.847
			c-0.387,0-0.754,0.079-1.089,0.221c-0.223-2.566-2.35-4.579-4.942-4.579c-0.633,0-1.252,0.126-1.799,0.341
			c-0.212,0.083-0.27,0.168-0.271,0.335v9.034C33.57,35.641,33.703,35.786,33.871,35.804z"/>
	</g>
	<path d="M32.028,16.318c-8.631,0-15.653,7.022-15.653,15.653c0,8.63,7.022,15.653,15.653,15.653s15.653-7.022,15.653-15.653
		C47.682,23.34,40.659,16.318,32.028,16.318z M32.028,46.307c-7.904,0-14.335-6.432-14.335-14.335
		c0-7.904,6.431-14.335,14.335-14.335s14.335,6.431,14.335,14.335C46.363,39.875,39.933,46.307,32.028,46.307z"/>
</g>
</svg>
