<?xml version="1.0" encoding="utf-8"?>
<!-- Generator: Adobe Illustrator 16.0.0, SVG Export Plug-In . SVG Version: 6.00 Build 0)  -->
<!DOCTYPE svg PUBLIC "-//W3C//DTD SVG 1.1//EN" "http://www.w3.org/Graphics/SVG/1.1/DTD/svg11.dtd">
<svg version="1.1" id="Layer_1" xmlns="http://www.w3.org/2000/svg" xmlns:xlink="http://www.w3.org/1999/xlink" x="0px" y="0px"
	 width="32px" height="32px" viewBox="16 16 32 32" enable-background="new 16 16 32 32" xml:space="preserve">
<g>
	<path d="M32.028,16.218c-8.686,0-15.753,7.067-15.753,15.753c0,8.685,7.067,15.752,15.753,15.752s15.753-7.067,15.753-15.752
		C47.781,23.286,40.714,16.218,32.028,16.218z M32.028,46.397c-7.955,0-14.427-6.473-14.427-14.426
		c0-7.955,6.472-14.427,14.427-14.427c7.954,0,14.426,6.472,14.426,14.427C46.454,39.925,39.982,46.397,32.028,46.397z"/>
	<g>
		<path d="M31.046,22.039h-1.107l-0.747,2.87l-0.776-2.87h-1.151c0.23,0.677,0.471,1.358,0.702,2.036
			c0.35,1.019,0.57,1.787,0.668,2.312v2.959h1.095v-2.96L31.046,22.039z M33.971,27.583v-1.907c0-0.582-0.1-1.006-0.307-1.283
			c-0.273-0.371-0.656-0.559-1.15-0.559c-0.492,0-0.876,0.187-1.15,0.559c-0.209,0.276-0.309,0.701-0.309,1.283v1.907
			c0,0.58,0.1,1.008,0.309,1.281c0.273,0.372,0.658,0.558,1.15,0.558c0.494,0,0.877-0.187,1.15-0.558
			C33.871,28.591,33.971,28.162,33.971,27.583z M32.981,27.769c0,0.504-0.152,0.756-0.469,0.756c-0.319,0-0.472-0.252-0.472-0.756
			v-2.292c0-0.504,0.153-0.755,0.472-0.755c0.317,0,0.469,0.251,0.469,0.755V27.769z M37.62,29.346v-5.445h-0.988v4.162
			c-0.219,0.309-0.426,0.462-0.623,0.462c-0.133,0-0.21-0.078-0.231-0.23c-0.012-0.033-0.012-0.153-0.012-0.384v-4.009h-0.984v4.306
			c0,0.384,0.033,0.645,0.089,0.81c0.098,0.276,0.318,0.405,0.635,0.405c0.359,0,0.733-0.219,1.127-0.669v0.594L37.62,29.346
			L37.62,29.346z"/>
		<g>
			<path d="M38.148,34.875c-0.325,0-0.488,0.251-0.488,0.748v0.498h0.975v-0.498C38.635,35.126,38.473,34.875,38.148,34.875z"/>
			<path d="M34.525,34.875c-0.16,0-0.323,0.077-0.487,0.239v3.284c0.163,0.163,0.326,0.24,0.487,0.24
				c0.281,0,0.425-0.24,0.425-0.726v-2.302C34.95,35.126,34.807,34.875,34.525,34.875z"/>
			<path d="M40.535,32.136c-0.196-0.858-0.898-1.492-1.746-1.586c-2.004-0.225-4.032-0.226-6.049-0.225c-2.02,0-4.047,0-6.051,0.225
				c-0.846,0.095-1.549,0.728-1.746,1.586c-0.281,1.226-0.285,2.56-0.285,3.821c0,1.258,0,2.595,0.282,3.819
				c0.197,0.858,0.899,1.491,1.746,1.587c2.003,0.224,4.031,0.226,6.052,0.224c2.018,0.002,4.045,0,6.049-0.224
				c0.847-0.095,1.55-0.729,1.747-1.587c0.282-1.225,0.283-2.561,0.283-3.819C40.816,34.694,40.816,33.361,40.535,32.136z
				 M29.266,33.238h-1.169v6.213h-1.086v-6.213h-1.148v-1.02h3.404V33.238z M32.217,39.451H31.24v-0.588
				c-0.387,0.445-0.756,0.663-1.115,0.663c-0.315,0-0.531-0.128-0.629-0.403c-0.054-0.161-0.085-0.42-0.085-0.8v-4.262h0.975v3.969
				c0,0.229,0,0.347,0.009,0.38c0.024,0.151,0.098,0.228,0.229,0.228c0.196,0,0.4-0.151,0.617-0.456v-4.119h0.978V39.451z
				 M35.925,37.834c0,0.498-0.031,0.858-0.096,1.087c-0.132,0.401-0.393,0.605-0.782,0.605c-0.347,0-0.682-0.192-1.007-0.597v0.522
				h-0.977v-7.233h0.977v2.36c0.314-0.386,0.649-0.582,1.007-0.582c0.39,0,0.651,0.204,0.782,0.607
				c0.064,0.218,0.096,0.573,0.096,1.083V37.834z M39.612,36.936H37.66v0.954c0,0.499,0.163,0.748,0.498,0.748
				c0.239,0,0.381-0.131,0.437-0.393c0.01-0.053,0.021-0.269,0.021-0.66h0.997v0.143c0,0.314-0.012,0.53-0.021,0.63
				c-0.033,0.215-0.11,0.411-0.228,0.583c-0.271,0.394-0.671,0.586-1.181,0.586c-0.511,0-0.9-0.184-1.182-0.552
				c-0.208-0.27-0.313-0.696-0.313-1.268V35.82c0-0.576,0.093-0.998,0.302-1.271c0.28-0.369,0.671-0.552,1.169-0.552
				c0.49,0,0.878,0.183,1.151,0.552c0.205,0.272,0.303,0.694,0.303,1.271V36.936L39.612,36.936z"/>
		</g>
	</g>
</g>
</svg>
