<?xml version="1.0" encoding="utf-8"?>
<!-- Generator: Adobe Illustrator 16.0.0, SVG Export Plug-In . SVG Version: 6.00 Build 0)  -->
<!DOCTYPE svg PUBLIC "-//W3C//DTD SVG 1.1//EN" "http://www.w3.org/Graphics/SVG/1.1/DTD/svg11.dtd">
<svg version="1.1" id="Layer_1" xmlns="http://www.w3.org/2000/svg" xmlns:xlink="http://www.w3.org/1999/xlink" x="0px" y="0px"
	 width="32px" height="32px" viewBox="16 16 32 32" enable-background="new 16 16 32 32" xml:space="preserve">
<g>
	<g>
		<polygon points="16.328,17.792 32.158,45.21 47.986,17.792 		"/>
		<path fill="#FFFFFF" d="M46.527,18.543H17.787l14.372,25.403L46.527,18.543z M19.697,19.729h24.919L32.158,41.752L19.697,19.729z"
			/>
	</g>
	<path fill="none" stroke="#000000" stroke-miterlimit="10" d="M37.337,30.892h-9.902c-0.39,0-0.707-0.319-0.707-0.707V24.08
		c0-0.389,0.317-0.708,0.707-0.708h9.902c0.39,0,0.708,0.318,0.708,0.708v6.104C38.045,30.573,37.727,30.892,37.337,30.892z"/>
	<path fill="#FFFFFF" d="M32.387,26.878l5.624-2.964c-0.075-0.307-0.343-0.541-0.674-0.541h-9.902c-0.331,0-0.597,0.234-0.673,0.541
		L32.387,26.878z"/>
	<polygon fill="#FFFFFF" points="32.348,27.446 30.938,26.704 27.957,30.892 36.807,30.892 33.827,26.707 32.387,27.467 	"/>
	<path fill="#FFFFFF" d="M34.29,26.463l3.144,4.41c0.34-0.048,0.611-0.333,0.611-0.688v-5.7L34.29,26.463z"/>
	<path fill="#FFFFFF" d="M27.333,30.871l3.142-4.411l-3.749-1.975v5.7C26.728,30.538,26.993,30.819,27.333,30.871z"/>
</g>
</svg>
