<?xml version="1.0" encoding="utf-8"?>
<!-- Generator: Adobe Illustrator 16.0.0, SVG Export Plug-In . SVG Version: 6.00 Build 0)  -->
<!DOCTYPE svg PUBLIC "-//W3C//DTD SVG 1.1//EN" "http://www.w3.org/Graphics/SVG/1.1/DTD/svg11.dtd">
<svg version="1.1" id="Layer_1" xmlns="http://www.w3.org/2000/svg" xmlns:xlink="http://www.w3.org/1999/xlink" x="0px" y="0px"
	 width="32px" height="32px" viewBox="16 16 32 32" enable-background="new 16 16 32 32" xml:space="preserve">
<g>
	<g>
		<polygon points="16.058,18 32.043,45.688 48.028,18 		"/>
		<path fill="#FFFFFF" d="M46.558,18.76H17.531l14.514,25.652L46.558,18.76z M19.461,19.956h25.163l-12.581,22.24L19.461,19.956z"/>
	</g>
	<path fill="#FFFFFF" d="M28.154,22.2h7.778c0.74,0,1.346,0.604,1.346,1.343v7.779c0,0.74-0.605,1.344-1.346,1.344h-7.778
		c-0.738,0-1.344-0.604-1.344-1.344v-7.778C26.81,22.804,27.416,22.2,28.154,22.2z M34.436,23.363c-0.26,0-0.472,0.211-0.472,0.472
		v1.127c0,0.259,0.212,0.471,0.472,0.471h1.182c0.261,0,0.472-0.212,0.472-0.471v-1.127c0-0.261-0.211-0.472-0.472-0.472H34.436z
		 M36.095,26.625h-0.921c0.086,0.286,0.135,0.586,0.135,0.899c0,1.741-1.457,3.152-3.255,3.152c-1.797,0-3.254-1.413-3.254-3.152
		c0-0.313,0.049-0.613,0.136-0.899h-0.961v4.422c0,0.229,0.187,0.415,0.416,0.415h7.29c0.228,0,0.415-0.186,0.415-0.415V26.625
		L36.095,26.625z M32.053,25.374c-1.16,0-2.101,0.911-2.101,2.038c0,1.124,0.941,2.037,2.101,2.037c1.163,0,2.102-0.913,2.102-2.037
		C34.155,26.285,33.213,25.374,32.053,25.374z"/>
</g>
</svg>
