<?xml version="1.0" encoding="utf-8"?>
<!-- Generator: Adobe Illustrator 16.0.0, SVG Export Plug-In . SVG Version: 6.00 Build 0)  -->
<!DOCTYPE svg PUBLIC "-//W3C//DTD SVG 1.1//EN" "http://www.w3.org/Graphics/SVG/1.1/DTD/svg11.dtd">
<svg version="1.1" id="Layer_1" xmlns="http://www.w3.org/2000/svg" xmlns:xlink="http://www.w3.org/1999/xlink" x="0px" y="0px"
	 width="32px" height="32px" viewBox="16 16 32 32" enable-background="new 16 16 32 32" xml:space="preserve">
<g id="Layer_3">
	<g>
		<g>
			<polygon points="16.047,46 32.019,18.34 47.989,46 			"/>
			<path fill="#FFFFFF" d="M32.019,19.613l-14.5,25.628h28.999L32.019,19.613z M32.019,21.826l12.572,22.221H19.446L32.019,21.826z"
				/>
		</g>
		<g>
			<path fill="#FFFFFF" d="M24.504,40.276c0.035,0,0.063-0.029,0.068-0.068l0.187-1.479l-0.187-1.513
				c-0.005-0.041-0.033-0.069-0.068-0.069c-0.035,0-0.065,0.03-0.07,0.069l-0.163,1.513l0.163,1.477
				C24.439,40.246,24.469,40.276,24.504,40.276z"/>
			<path fill="#FFFFFF" d="M23.889,39.714c0.033,0,0.061-0.027,0.066-0.066l0.144-0.918l-0.144-0.937
				c-0.005-0.037-0.033-0.064-0.066-0.064c-0.036,0-0.062,0.027-0.067,0.064l-0.121,0.937l0.121,0.918
				C23.827,39.687,23.854,39.714,23.889,39.714z"/>
			<path fill="#FFFFFF" d="M25.24,36.936c-0.004-0.049-0.04-0.084-0.083-0.084s-0.079,0.035-0.083,0.084l-0.155,1.794l0.155,1.729
				c0.005,0.047,0.04,0.08,0.083,0.08s0.079-0.033,0.083-0.08l0.176-1.729L25.24,36.936z"/>
			<path fill="#FFFFFF" d="M25.816,40.61c0.051,0,0.093-0.043,0.097-0.097l0.167-1.783l-0.167-1.845
				c-0.004-0.056-0.046-0.097-0.097-0.097c-0.052,0-0.094,0.041-0.098,0.097l-0.146,1.844l0.146,1.784
				C25.723,40.567,25.765,40.61,25.816,40.61z"/>
			<path fill="#FFFFFF" d="M26.48,40.639c0.06,0,0.108-0.049,0.112-0.111h0l0.157-1.797l-0.157-1.713
				c-0.004-0.06-0.053-0.111-0.112-0.111c-0.06,0-0.107,0.052-0.112,0.112L26.23,38.73l0.138,1.797
				C26.373,40.59,26.42,40.639,26.48,40.639z"/>
			<path fill="#FFFFFF" d="M27.424,38.73l-0.149-2.783c-0.003-0.069-0.058-0.125-0.125-0.125c-0.066,0-0.122,0.056-0.125,0.125
				l-0.131,2.783l0.131,1.797c0.003,0.073,0.059,0.126,0.125,0.126c0.067,0,0.123-0.053,0.125-0.126l0,0L27.424,38.73z"/>
			<path fill="#FFFFFF" d="M27.825,40.657c0.074,0,0.136-0.062,0.141-0.141v0.001l0.137-1.787l-0.137-3.42
				c-0.004-0.076-0.067-0.139-0.141-0.139c-0.076,0-0.137,0.061-0.141,0.139l-0.121,3.42l0.122,1.786
				C27.688,40.596,27.75,40.657,27.825,40.657z"/>
			<path fill="#FFFFFF" d="M28.505,34.872c-0.084,0-0.15,0.067-0.154,0.154l-0.112,3.706l0.112,1.766
				c0.004,0.089,0.07,0.156,0.154,0.156c0.083,0,0.151-0.067,0.155-0.156V40.5l0.127-1.768l-0.127-3.706
				C28.656,34.939,28.588,34.872,28.505,34.872z"/>
			<path fill="#FFFFFF" d="M29.192,40.657c0.091,0,0.164-0.075,0.167-0.171v0.002l0.118-1.756l-0.118-3.831
				c-0.003-0.093-0.076-0.168-0.167-0.168c-0.094,0-0.168,0.075-0.169,0.168l-0.106,3.831l0.106,1.756
				C29.024,40.582,29.098,40.657,29.192,40.657z"/>
			<path fill="#FFFFFF" d="M29.882,40.654c0.098,0,0.18-0.081,0.183-0.183v0.001l0.109-1.74L30.064,35
				c-0.003-0.102-0.084-0.182-0.183-0.182c-0.1,0-0.181,0.08-0.183,0.182l-0.097,3.732l0.097,1.74
				C29.701,40.573,29.782,40.654,29.882,40.654z"/>
			<path fill="#FFFFFF" d="M30.874,38.732l-0.099-3.598c-0.002-0.109-0.09-0.197-0.197-0.197c-0.108,0-0.195,0.088-0.198,0.199
				l-0.087,3.596l0.087,1.729c0.002,0.109,0.089,0.197,0.198,0.197c0.107,0,0.194-0.088,0.197-0.197l0,0L30.874,38.732z"/>
			<path fill="#FFFFFF" d="M31.279,40.661c0.116,0,0.209-0.094,0.211-0.212l0,0l0.09-1.716l-0.09-4.279
				c-0.001-0.118-0.096-0.213-0.211-0.213c-0.114,0-0.208,0.099-0.211,0.213l-0.079,4.276l0.079,1.719
				C31.071,40.567,31.165,40.661,31.279,40.661z"/>
			<path fill="#FFFFFF" d="M31.978,33.839c-0.122,0-0.223,0.104-0.225,0.228l-0.093,4.666l0.093,1.693
				c0.002,0.122,0.103,0.225,0.225,0.225c0.123,0,0.226-0.103,0.227-0.227v0.003l0.099-1.693l-0.099-4.667
				C32.202,33.941,32.1,33.839,31.978,33.839z"/>
			<path fill="#FFFFFF" d="M32.618,40.664c0.005,0,5.636,0.002,5.671,0.002c1.13,0,2.047-0.927,2.047-2.071
				c0-1.143-0.917-2.07-2.047-2.07c-0.28,0-0.549,0.058-0.792,0.16c-0.161-1.868-1.71-3.332-3.595-3.332
				c-0.463,0-0.913,0.093-1.31,0.249c-0.154,0.061-0.194,0.121-0.196,0.244v6.571C32.398,40.545,32.494,40.65,32.618,40.664z"/>
		</g>
	</g>
</g>
</svg>
