<?xml version="1.0" encoding="utf-8"?>
<!-- Generator: Adobe Illustrator 16.0.0, SVG Export Plug-In . SVG Version: 6.00 Build 0)  -->
<!DOCTYPE svg PUBLIC "-//W3C//DTD SVG 1.1//EN" "http://www.w3.org/Graphics/SVG/1.1/DTD/svg11.dtd">
<svg version="1.1" id="Layer_1" xmlns="http://www.w3.org/2000/svg" xmlns:xlink="http://www.w3.org/1999/xlink" x="0px" y="0px"
	 width="32px" height="32px" viewBox="16 16 32 32" enable-background="new 16 16 32 32" xml:space="preserve">
<g>
	<g>
		<path d="M31.071,28.483h-0.827l-0.558,2.144l-0.579-2.144h-0.86c0.172,0.506,0.352,1.015,0.524,1.521
			c0.261,0.76,0.425,1.334,0.499,1.726v2.209h0.818V31.73L31.071,28.483z M33.255,32.624v-1.425c0-0.435-0.074-0.751-0.229-0.958
			c-0.205-0.277-0.489-0.417-0.859-0.417c-0.367,0-0.655,0.141-0.859,0.417c-0.157,0.206-0.23,0.523-0.23,0.958v1.425
			c0,0.433,0.074,0.752,0.23,0.956c0.205,0.278,0.492,0.416,0.859,0.416c0.369,0,0.655-0.139,0.859-0.416
			C33.181,33.376,33.255,33.057,33.255,32.624z M32.518,32.763c0,0.376-0.113,0.565-0.351,0.565s-0.353-0.189-0.353-0.565v-1.711
			c0-0.377,0.115-0.563,0.353-0.563s0.351,0.188,0.351,0.563V32.763z M35.98,33.939v-4.065h-0.736v3.108
			c-0.164,0.23-0.317,0.346-0.466,0.346c-0.099,0-0.157-0.059-0.173-0.174c-0.011-0.023-0.011-0.113-0.011-0.286v-2.994H33.86v3.215
			c0,0.286,0.025,0.481,0.067,0.604c0.073,0.207,0.236,0.303,0.474,0.303c0.271,0,0.549-0.162,0.843-0.499v0.442H35.98L35.98,33.939
			z"/>
		<g>
			<path d="M36.376,38.069c-0.244,0-0.365,0.188-0.365,0.558V39h0.729v-0.373C36.739,38.257,36.617,38.069,36.376,38.069z"/>
			<path d="M33.67,38.069c-0.12,0-0.242,0.057-0.364,0.178V40.7c0.122,0.122,0.244,0.18,0.364,0.18c0.209,0,0.315-0.18,0.315-0.543
				v-1.719C33.986,38.257,33.88,38.069,33.67,38.069z"/>
			<path d="M38.158,36.023c-0.146-0.641-0.671-1.114-1.305-1.185c-1.497-0.168-3.011-0.169-4.517-0.168
				c-1.507-0.001-3.022,0-4.518,0.168c-0.632,0.07-1.157,0.544-1.305,1.185c-0.21,0.915-0.213,1.912-0.213,2.853s0,1.939,0.21,2.852
				c0.147,0.642,0.672,1.114,1.305,1.187c1.496,0.166,3.011,0.169,4.518,0.166c1.508,0.003,3.021,0,4.518-0.166
				c0.632-0.072,1.157-0.545,1.305-1.187c0.211-0.912,0.212-1.911,0.212-2.852S38.368,36.938,38.158,36.023z M29.744,36.847H28.87
				v4.639h-0.811v-4.639H27.2v-0.762h2.544V36.847z M31.946,41.486h-0.73v-0.438c-0.289,0.332-0.564,0.494-0.832,0.494
				c-0.236,0-0.397-0.095-0.471-0.299c-0.04-0.123-0.064-0.313-0.064-0.598v-3.184h0.729v2.964c0,0.169,0,0.259,0.006,0.283
				c0.018,0.114,0.074,0.171,0.171,0.171c0.146,0,0.299-0.114,0.461-0.342v-3.076h0.73V41.486z M34.716,40.278
				c0,0.373-0.024,0.641-0.073,0.811c-0.098,0.3-0.293,0.452-0.583,0.452c-0.261,0-0.51-0.143-0.754-0.444v0.389h-0.729v-5.4h0.729
				v1.765c0.235-0.291,0.486-0.438,0.754-0.438c0.29,0,0.486,0.154,0.583,0.455c0.049,0.161,0.073,0.429,0.073,0.81V40.278z
				 M37.469,39.607h-1.458v0.713c0,0.371,0.121,0.559,0.371,0.559c0.18,0,0.284-0.098,0.326-0.293
				c0.008-0.04,0.017-0.201,0.017-0.493h0.744v0.104c0,0.235-0.01,0.397-0.017,0.472c-0.024,0.16-0.08,0.307-0.171,0.438
				c-0.202,0.292-0.5,0.436-0.879,0.436c-0.381,0-0.673-0.138-0.883-0.412c-0.155-0.201-0.234-0.519-0.234-0.945v-1.411
				c0-0.429,0.07-0.745,0.227-0.948c0.21-0.275,0.501-0.413,0.872-0.413c0.366,0,0.657,0.138,0.859,0.413
				c0.153,0.203,0.228,0.52,0.228,0.948v0.834H37.469z"/>
		</g>
	</g>
	<path d="M31.979,18.388L16.037,46h31.884L31.979,18.388z M31.979,20.772L45.8,44.712H18.157L31.979,20.772z"/>
</g>
</svg>
