<?xml version="1.0" encoding="utf-8"?>
<!-- Generator: Adobe Illustrator 16.0.0, SVG Export Plug-In . SVG Version: 6.00 Build 0)  -->
<!DOCTYPE svg PUBLIC "-//W3C//DTD SVG 1.1//EN" "http://www.w3.org/Graphics/SVG/1.1/DTD/svg11.dtd">
<svg version="1.1" id="Layer_1" xmlns="http://www.w3.org/2000/svg" xmlns:xlink="http://www.w3.org/1999/xlink" x="0px" y="0px"
	 width="32px" height="32px" viewBox="16 16 32 32" enable-background="new 16 16 32 32" xml:space="preserve">
<g>
	<g>
		<polygon points="16,46 31.963,18.348 47.928,46 		"/>
		<path fill="#FFFFFF" d="M31.963,19.622L17.47,45.241h28.989L31.963,19.622z M31.963,21.834l12.566,22.212H19.397L31.963,21.834z"
			/>
	</g>
	<g>
		<path fill="#FFFFFF" d="M31.118,28.826h-0.786l-0.531,2.039l-0.551-2.039h-0.818c0.163,0.481,0.334,0.965,0.499,1.448
			c0.248,0.723,0.404,1.27,0.475,1.642v2.101h0.777v-2.101L31.118,28.826z M33.195,32.765V31.41c0-0.413-0.071-0.717-0.217-0.911
			c-0.195-0.265-0.467-0.396-0.818-0.396c-0.349,0-0.622,0.131-0.816,0.396c-0.149,0.194-0.22,0.498-0.22,0.911v1.354
			c0,0.411,0.071,0.716,0.22,0.91c0.194,0.263,0.467,0.396,0.816,0.396c0.352,0,0.623-0.134,0.818-0.396
			C33.124,33.48,33.195,33.176,33.195,32.765z M32.494,32.897c0,0.358-0.109,0.536-0.335,0.536s-0.335-0.178-0.335-0.536V31.27
			c0-0.357,0.109-0.536,0.335-0.536s0.335,0.179,0.335,0.536V32.897z M35.787,34.016v-3.867h-0.699v2.957
			c-0.157,0.219-0.305,0.328-0.444,0.328c-0.095,0-0.148-0.057-0.164-0.164c-0.01-0.023-0.01-0.109-0.01-0.271v-2.849h-0.697v3.058
			c0,0.273,0.023,0.459,0.062,0.576c0.07,0.195,0.227,0.288,0.451,0.288c0.254,0,0.521-0.155,0.801-0.478v0.422H35.787
			L35.787,34.016z"/>
		<g>
			<path fill="#FFFFFF" d="M36.166,37.944c-0.233,0-0.35,0.178-0.35,0.53v0.354h0.693v-0.354
				C36.51,38.122,36.393,37.944,36.166,37.944z"/>
			<path fill="#FFFFFF" d="M33.592,37.944c-0.116,0-0.231,0.055-0.346,0.167v2.335c0.114,0.116,0.229,0.17,0.346,0.17
				c0.199,0,0.3-0.17,0.3-0.516v-1.634C33.892,38.122,33.79,37.944,33.592,37.944z"/>
			<path fill="#FFFFFF" d="M37.859,35.998c-0.141-0.61-0.64-1.061-1.241-1.126c-1.422-0.161-2.864-0.161-4.297-0.161
				s-2.874,0-4.297,0.161c-0.601,0.065-1.1,0.516-1.241,1.126c-0.2,0.871-0.202,1.817-0.202,2.714c0,0.895,0,1.843,0.2,2.713
				c0.139,0.609,0.639,1.06,1.24,1.128c1.422,0.159,2.864,0.161,4.297,0.159c1.434,0.002,2.875,0,4.297-0.159
				c0.603-0.068,1.1-0.519,1.24-1.128c0.203-0.87,0.203-1.818,0.203-2.713C38.059,37.815,38.06,36.869,37.859,35.998z M29.854,36.78
				h-0.831v4.413h-0.771V36.78h-0.817v-0.724h2.418V36.78z M31.951,41.193h-0.694v-0.416c-0.276,0.315-0.538,0.47-0.793,0.47
				c-0.224,0-0.377-0.091-0.447-0.285c-0.038-0.116-0.062-0.298-0.062-0.569v-3.025h0.694v2.817c0,0.163,0,0.247,0.006,0.27
				c0.017,0.108,0.07,0.163,0.163,0.163c0.138,0,0.284-0.107,0.438-0.324v-2.926h0.694V41.193L31.951,41.193z M34.586,40.045
				c0,0.354-0.024,0.61-0.071,0.771c-0.093,0.287-0.278,0.431-0.554,0.431c-0.247,0-0.485-0.136-0.715-0.424v0.371h-0.694v-5.137
				h0.694v1.678c0.223-0.275,0.459-0.415,0.715-0.415c0.275,0,0.462,0.146,0.554,0.433c0.047,0.153,0.071,0.407,0.071,0.769V40.045z
				 M37.202,39.406h-1.386v0.68c0,0.355,0.116,0.531,0.355,0.531c0.169,0,0.271-0.095,0.311-0.278
				c0.006-0.038,0.013-0.19,0.013-0.469h0.707v0.099c0,0.226-0.008,0.38-0.014,0.449c-0.023,0.152-0.077,0.292-0.161,0.414
				c-0.194,0.279-0.479,0.415-0.84,0.415c-0.363,0-0.639-0.13-0.838-0.391c-0.149-0.192-0.224-0.495-0.224-0.9v-1.341
				c0-0.409,0.066-0.709,0.213-0.9c0.201-0.264,0.478-0.394,0.833-0.394c0.347,0,0.622,0.13,0.816,0.394
				c0.144,0.191,0.214,0.491,0.214,0.9V39.406z"/>
		</g>
	</g>
</g>
</svg>
