<?xml version="1.0" encoding="utf-8"?>
<!-- Generator: Adobe Illustrator 16.0.0, SVG Export Plug-In . SVG Version: 6.00 Build 0)  -->
<!DOCTYPE svg PUBLIC "-//W3C//DTD SVG 1.1//EN" "http://www.w3.org/Graphics/SVG/1.1/DTD/svg11.dtd">
<svg version="1.1" id="Layer_1" xmlns="http://www.w3.org/2000/svg" xmlns:xlink="http://www.w3.org/1999/xlink" x="0px" y="0px"
	 width="32px" height="32px" viewBox="16 16 32 32" enable-background="new 16 16 32 32" xml:space="preserve">
<g>
	<g id="style_2_7_">
		<g>
			<path d="M37.733,38.445v-0.093c-1.113-0.596-1.719-1.467-1.719-2.729c0-1.021,0.456-1.912,1.285-2.485l0.037-0.019
				c-0.549-0.668-1.284-1.336-2.417-1.336c-0.794,0-1.454,0.761-2.55,0.761c-0.869,0-1.228-0.723-2.172-0.723
				c-1.964,0-3.91,1.725-3.91,3.97c0,1.188,0.396,3.026,1.284,4.621c0.643,1.172,1.436,1.931,2.324,1.931
				c0.642,0,1.398-0.576,2.304-0.576c0.793,0,1.529,0.522,2.247,0.522c1.72,0,3.307-2.19,3.307-3.656
				C37.753,38.557,37.733,38.501,37.733,38.445z"/>
			<path d="M32.331,32.303c1.283-0.389,2.474-1.336,2.474-2.988c0-0.13-0.018-0.297-0.038-0.483l-0.018-0.075
				c-1.304,0.352-2.475,1.354-2.475,2.933c0,0.148,0.02,0.334,0.057,0.537V32.303L32.331,32.303z"/>
		</g>
	</g>
	<path d="M32.021,18.322L16.041,46H48L32.021,18.322z M32.021,20.713l13.854,23.995H18.166L32.021,20.713z"/>
</g>
</svg>
