<?xml version="1.0" encoding="utf-8"?>
<!-- Generator: Adobe Illustrator 16.0.0, SVG Export Plug-In . SVG Version: 6.00 Build 0)  -->
<!DOCTYPE svg PUBLIC "-//W3C//DTD SVG 1.1//EN" "http://www.w3.org/Graphics/SVG/1.1/DTD/svg11.dtd">
<svg version="1.1" id="Layer_1" xmlns="http://www.w3.org/2000/svg" xmlns:xlink="http://www.w3.org/1999/xlink" x="0px" y="0px"
	 width="32px" height="32px" viewBox="16 16 32 32" enable-background="new 16 16 32 32" xml:space="preserve">
<g>
	<path fill="#231F20" d="M31.986,18.325L16.008,46h31.956L31.986,18.325z M31.986,20.715l13.852,23.994H18.133L31.986,20.715z"/>
	<g>
		<polygon points="16.012,45.997 31.986,18.328 47.96,45.997 		"/>
		<path fill="#FFFFFF" d="M31.986,19.602L17.483,45.237h29.006L31.986,19.602z M31.986,21.817L44.56,44.041H19.413L31.986,21.817z"
			/>
	</g>
	<g id="style_2_3_">
		<g>
			<path fill="#FFFFFF" d="M37.698,38.446v-0.094c-1.114-0.594-1.718-1.466-1.718-2.729c0-1.02,0.454-1.91,1.284-2.485l0.038-0.019
				c-0.549-0.668-1.284-1.336-2.418-1.336c-0.792,0-1.454,0.761-2.549,0.761c-0.87,0-1.228-0.724-2.172-0.724
				c-1.965,0-3.91,1.726-3.91,3.971c0,1.188,0.397,3.025,1.284,4.62c0.643,1.172,1.435,1.932,2.323,1.932
				c0.641,0,1.397-0.575,2.303-0.575c0.794,0,1.53,0.52,2.249,0.52c1.717,0,3.304-2.188,3.304-3.656
				C37.719,38.556,37.698,38.501,37.698,38.446z"/>
			<path fill="#FFFFFF" d="M32.296,32.305c1.283-0.39,2.474-1.336,2.474-2.988c0-0.13-0.019-0.298-0.037-0.483l-0.019-0.076
				c-1.304,0.352-2.473,1.354-2.473,2.932c0,0.149,0.018,0.334,0.055,0.537V32.305L32.296,32.305z"/>
		</g>
	</g>
</g>
</svg>
