<?xml version="1.0" encoding="utf-8"?>
<!-- Generator: Adobe Illustrator 16.0.0, SVG Export Plug-In . SVG Version: 6.00 Build 0)  -->
<!DOCTYPE svg PUBLIC "-//W3C//DTD SVG 1.1//EN" "http://www.w3.org/Graphics/SVG/1.1/DTD/svg11.dtd">
<svg version="1.1" id="Layer_1" xmlns="http://www.w3.org/2000/svg" xmlns:xlink="http://www.w3.org/1999/xlink" x="0px" y="0px"
	 width="32px" height="32px" viewBox="16 16 32 32" enable-background="new 16 16 32 32" xml:space="preserve">
<g>
	<path fill="none" stroke="#000000" stroke-miterlimit="10" d="M37.142,31.159h-9.947c-0.391,0-0.71-0.319-0.71-0.71v-6.13
		c0-0.391,0.319-0.71,0.71-0.71h9.947c0.39,0,0.709,0.32,0.709,0.71v6.13C37.851,30.84,37.532,31.159,37.142,31.159z"/>
	<path d="M32.167,27.129l5.65-2.977c-0.076-0.308-0.346-0.543-0.676-0.543h-9.947c-0.332,0-0.6,0.234-0.677,0.543L32.167,27.129z"/>
	<polygon points="32.128,27.699 30.712,26.953 27.718,31.159 36.607,31.159 33.614,26.957 32.167,27.721 	"/>
	<path d="M34.079,26.713l3.156,4.428c0.344-0.048,0.615-0.334,0.615-0.69v-5.726L34.079,26.713z"/>
	<path d="M27.092,31.139l3.155-4.432l-3.763-1.982v5.724C26.484,30.804,26.751,31.088,27.092,31.139z"/>
	<path d="M47.84,18H16.037l15.901,27.542L47.84,18z M18.151,19.285h27.573L31.938,43.162L18.151,19.285z"/>
</g>
</svg>
