<?xml version="1.0" encoding="utf-8"?>
<!-- Generator: Adobe Illustrator 16.0.0, SVG Export Plug-In . SVG Version: 6.00 Build 0)  -->
<!DOCTYPE svg PUBLIC "-//W3C//DTD SVG 1.1//EN" "http://www.w3.org/Graphics/SVG/1.1/DTD/svg11.dtd">
<svg version="1.1" id="Facebook_1_" xmlns="http://www.w3.org/2000/svg" xmlns:xlink="http://www.w3.org/1999/xlink" x="0px"
	 y="0px" width="32px" height="32px" viewBox="16 16 32 32" enable-background="new 16 16 32 32" xml:space="preserve">
<g display="none">
	<path display="inline" fill="none" stroke="#000000" stroke-miterlimit="10" d="M37.038,36.352l0.55-4.257h-4.217v-2.72
		c0-1.233,0.343-2.072,2.109-2.072l2.254-0.001v-3.81c-0.389-0.053-1.727-0.168-3.284-0.168c-3.252,0-5.477,1.986-5.477,5.631v3.14
		h-3.677v4.256h3.677v10.926h4.397V36.352H37.038z"/>
	<path display="inline" fill="none" stroke="#000000" stroke-miterlimit="10" d="M31.872,3.694L1.709,55.938h60.326L31.872,3.694z
		 M31.872,8.206l26.151,45.293H5.722L31.872,8.206z"/>
</g>
<g>
	<g>
		<polygon points="16.013,47 31.967,19.366 47.922,47 		"/>
		<path fill="#FFFFFF" d="M31.967,20.639L17.482,46.243h28.97L31.967,20.639z M31.967,22.85l12.558,22.197H19.41L31.967,22.85z"/>
	</g>
	<path fill="#FFFFFF" d="M34.424,37.011l0.291-2.253h-2.231v-1.438c0-0.652,0.182-1.097,1.117-1.097l1.192-0.001v-2.015
		c-0.205-0.027-0.914-0.088-1.738-0.088c-1.721,0-2.897,1.05-2.897,2.978v1.662h-1.946v2.253h1.946v5.78h2.326v-5.781H34.424z"/>
</g>
<g display="none">
	<path display="inline" d="M37.333,36.111l0.574-4.447h-4.404v-2.84c0-1.287,0.358-2.165,2.205-2.165l2.354-0.002V22.68
		c-0.406-0.055-1.805-0.175-3.433-0.175c-3.396,0-5.72,2.073-5.72,5.879v3.28h-3.841v4.447h3.841v11.412h4.593V36.111H37.333z"/>
	<path display="inline" d="M31.938,2L0.433,56.568h63.01L31.938,2z M31.938,6.713l27.314,47.309H4.624L31.938,6.713z"/>
</g>
</svg>
