<?xml version="1.0" encoding="utf-8"?>
<!-- Generator: Adobe Illustrator 16.0.0, SVG Export Plug-In . SVG Version: 6.00 Build 0)  -->
<!DOCTYPE svg PUBLIC "-//W3C//DTD SVG 1.1//EN" "http://www.w3.org/Graphics/SVG/1.1/DTD/svg11.dtd">
<svg version="1.1" id="Facebook_1_" xmlns="http://www.w3.org/2000/svg" xmlns:xlink="http://www.w3.org/1999/xlink" x="0px"
	 y="0px" width="32px" height="32px" viewBox="16 16 32 32" enable-background="new 16 16 32 32" xml:space="preserve">
<g display="none">
	<path display="inline" fill="none" stroke="#000000" stroke-miterlimit="10" d="M37.193,36.548l0.565-4.385h-4.344v-2.802
		c0-1.271,0.354-2.134,2.174-2.134l2.321-0.001v-3.924c-0.401-0.055-1.778-0.174-3.385-0.174c-3.349,0-5.641,2.046-5.641,5.8v3.234
		h-3.788v4.385h3.788V47.8h4.529V36.548H37.193z"/>
	<path display="inline" fill="none" stroke="#231F20" stroke-miterlimit="10" d="M31.872,2.91L0.805,56.72h62.134L31.872,2.91z
		 M31.872,7.558L58.809,54.21H4.938L31.872,7.558z"/>
</g>
<g display="none">
	<g display="inline">
		<polygon points="0.809,56.329 31.868,2.533 62.928,56.329 		"/>
		<path fill="#FFFFFF" d="M31.868,5.011L3.67,54.855h56.396L31.868,5.011z M31.868,9.316l24.446,43.211H7.421L31.868,9.316z"/>
	</g>
	<path display="inline" fill="#FFFFFF" d="M36.648,36.883l0.567-4.386h-4.343v-2.801c0-1.27,0.354-2.134,2.173-2.134l2.322-0.002
		v-3.922c-0.4-0.053-1.779-0.172-3.384-0.172c-3.35,0-5.641,2.044-5.641,5.797v3.235h-3.789v4.386h3.789v11.255h4.528V36.883H36.648
		z"/>
</g>
<g>
	<path d="M34.758,35.745l0.291-2.255h-2.234v-1.44c0-0.653,0.183-1.099,1.119-1.099l1.194-0.001v-2.018
		c-0.206-0.028-0.916-0.089-1.741-0.089c-1.723,0-2.901,1.052-2.901,2.983v1.664h-1.949v2.255h1.949v5.79h2.329v-5.79H34.758z"/>
	<path d="M32.021,18.442L16.039,46.123h31.964L32.021,18.442z M32.021,20.833l13.856,23.999H18.165L32.021,20.833z"/>
</g>
</svg>
