<?xml version="1.0" encoding="utf-8"?>
<!-- Generator: Adobe Illustrator 16.0.0, SVG Export Plug-In . SVG Version: 6.00 Build 0)  -->
<!DOCTYPE svg PUBLIC "-//W3C//DTD SVG 1.1//EN" "http://www.w3.org/Graphics/SVG/1.1/DTD/svg11.dtd">
<svg version="1.1" id="Layer_1" xmlns="http://www.w3.org/2000/svg" xmlns:xlink="http://www.w3.org/1999/xlink" x="0px" y="0px"
	 width="32px" height="32px" viewBox="16 16 32 32" enable-background="new 16 16 32 32" xml:space="preserve">
<g>
	<path d="M28.079,22.194h7.762c0.737,0,1.339,0.604,1.339,1.341v7.761c0,0.737-0.602,1.34-1.339,1.34h-7.762
		c-0.737,0-1.341-0.604-1.341-1.34v-7.761C26.738,22.797,27.342,22.194,28.079,22.194z M34.347,23.354
		c-0.261,0-0.472,0.213-0.472,0.471v1.125c0,0.259,0.211,0.471,0.472,0.471h1.179c0.259,0,0.47-0.212,0.47-0.471v-1.125
		c0-0.258-0.211-0.471-0.47-0.471H34.347z M36.001,26.61h-0.919c0.088,0.284,0.135,0.584,0.135,0.896
		c0,1.737-1.455,3.145-3.248,3.145c-1.791,0-3.246-1.409-3.246-3.145c0-0.312,0.047-0.612,0.134-0.896h-0.959v4.411
		c0,0.229,0.187,0.415,0.416,0.415h7.272c0.229,0,0.416-0.185,0.416-0.415L36.001,26.61L36.001,26.61z M31.969,25.36
		c-1.157,0-2.097,0.909-2.097,2.033c0,1.122,0.939,2.032,2.097,2.032c1.16,0,2.099-0.91,2.099-2.032
		C34.066,26.269,33.128,25.36,31.969,25.36z"/>
	<path d="M47.914,18H16.005L31.96,45.632L47.914,18z M18.127,19.29H45.79L31.96,43.246L18.127,19.29z"/>
</g>
</svg>
