<?xml version="1.0" encoding="utf-8"?>
<!-- Generator: Adobe Illustrator 16.0.0, SVG Export Plug-In . SVG Version: 6.00 Build 0)  -->
<!DOCTYPE svg PUBLIC "-//W3C//DTD SVG 1.1//EN" "http://www.w3.org/Graphics/SVG/1.1/DTD/svg11.dtd">
<svg version="1.1" id="Layer_1" xmlns="http://www.w3.org/2000/svg" xmlns:xlink="http://www.w3.org/1999/xlink" x="0px" y="0px"
	 width="32px" height="32px" viewBox="16 16 32 32" enable-background="new 16 16 32 32" xml:space="preserve">
<g>
	<g>
		<path d="M23.514,40.693c0.039,0,0.071-0.03,0.077-0.077l0.208-1.657l-0.208-1.692c-0.006-0.043-0.039-0.075-0.077-0.075
			c-0.039,0-0.073,0.033-0.079,0.075l-0.183,1.692l0.183,1.657C23.441,40.664,23.475,40.693,23.514,40.693z"/>
		<path d="M22.825,40.064c0.037,0,0.068-0.03,0.074-0.073l0.162-1.032l-0.162-1.047c-0.005-0.041-0.037-0.075-0.074-0.075
			c-0.04,0-0.07,0.033-0.076,0.075l-0.135,1.045l0.135,1.032C22.755,40.034,22.785,40.064,22.825,40.064z"/>
		<path d="M24.339,36.952c-0.005-0.055-0.045-0.094-0.094-0.094c-0.049,0-0.088,0.039-0.092,0.094l-0.175,2.007l0.175,1.938
			c0.004,0.055,0.043,0.093,0.092,0.093c0.048,0,0.088-0.038,0.094-0.093l0.196-1.938L24.339,36.952z"/>
		<path d="M24.983,41.067c0.057,0,0.104-0.047,0.108-0.108l0.187-1.997l-0.187-2.065c-0.005-0.062-0.052-0.109-0.108-0.109
			c-0.059,0-0.106,0.047-0.11,0.109l-0.165,2.065l0.165,1.997C24.877,41.021,24.925,41.067,24.983,41.067z"/>
		<path d="M25.727,41.102c0.067,0,0.119-0.055,0.126-0.126h-0.001l0.176-2.014l-0.176-1.917c-0.005-0.071-0.058-0.125-0.124-0.125
			c-0.068,0-0.122,0.054-0.126,0.127l-0.156,1.915l0.156,2.014C25.606,41.047,25.66,41.102,25.727,41.102z"/>
		<path d="M26.783,38.963l-0.165-3.117c-0.005-0.078-0.066-0.141-0.142-0.141s-0.137,0.062-0.142,0.141l-0.146,3.117l0.146,2.013
			c0.004,0.08,0.066,0.141,0.142,0.141s0.136-0.061,0.142-0.141v0.001L26.783,38.963z"/>
		<path d="M27.233,41.12c0.084,0,0.153-0.068,0.156-0.157v0.002l0.154-2.003l-0.154-3.828c-0.003-0.089-0.072-0.158-0.156-0.158
			c-0.084,0-0.153,0.069-0.158,0.158l-0.136,3.828l0.137,2.001C27.08,41.052,27.149,41.12,27.233,41.12z"/>
		<path d="M27.994,34.641c-0.093,0-0.169,0.077-0.172,0.173l-0.126,4.151l0.126,1.979c0.003,0.098,0.079,0.173,0.172,0.173
			c0.094,0,0.17-0.075,0.173-0.173l0,0l0.144-1.979l-0.144-4.151C28.165,34.717,28.088,34.641,27.994,34.641z"/>
		<path d="M28.764,41.12c0.103,0,0.184-0.083,0.188-0.188v0.002l0.132-1.969l-0.132-4.29c-0.004-0.107-0.086-0.188-0.188-0.188
			c-0.105,0-0.187,0.081-0.189,0.188l-0.119,4.29l0.119,1.969C28.577,41.037,28.66,41.12,28.764,41.12z"/>
		<path d="M29.537,41.119c0.111,0,0.201-0.09,0.205-0.207v0.003l0.122-1.95l-0.122-4.18c-0.004-0.115-0.094-0.204-0.205-0.204
			c-0.112,0-0.202,0.09-0.205,0.204l-0.107,4.18l0.108,1.948C29.335,41.029,29.425,41.119,29.537,41.119z"/>
		<path d="M30.647,38.965l-0.11-4.026c-0.002-0.127-0.1-0.223-0.22-0.223c-0.122,0-0.219,0.096-0.221,0.223l-0.1,4.026l0.1,1.937
			c0.002,0.123,0.099,0.222,0.221,0.222c0.121,0,0.218-0.097,0.22-0.222l0,0L30.647,38.965z"/>
		<path d="M31.103,41.126c0.129,0,0.234-0.105,0.236-0.237l0,0l0.1-1.923l-0.1-4.793c-0.002-0.131-0.107-0.237-0.236-0.237
			c-0.128,0-0.234,0.106-0.236,0.237l-0.089,4.792l0.089,1.925C30.868,41.021,30.975,41.126,31.103,41.126z"/>
		<path d="M31.886,33.483c-0.139,0-0.251,0.117-0.253,0.258l-0.104,5.225l0.104,1.896c0.001,0.136,0.114,0.253,0.253,0.253
			c0.137,0,0.25-0.118,0.25-0.256v0.003l0.113-1.896l-0.113-5.225C32.136,33.6,32.023,33.483,31.886,33.483z"/>
		<path d="M32.602,41.128c0.008,0,6.312,0.003,6.354,0.003c1.265,0,2.291-1.038,2.291-2.319c0-1.282-1.026-2.32-2.291-2.32
			c-0.314,0-0.614,0.065-0.89,0.181c-0.181-2.089-1.913-3.73-4.026-3.73c-0.518,0-1.02,0.104-1.465,0.277
			c-0.175,0.069-0.219,0.137-0.22,0.272v7.363C32.357,40.994,32.465,41.115,32.602,41.128z"/>
	</g>
	<path d="M31.93,18.423L16.007,46h31.844L31.93,18.423z M31.93,20.805l13.803,23.909H18.125L31.93,20.805z"/>
</g>
</svg>
