<?xml version="1.0" encoding="utf-8"?>
<!-- Generator: Adobe Illustrator 16.0.0, SVG Export Plug-In . SVG Version: 6.00 Build 0)  -->
<!DOCTYPE svg PUBLIC "-//W3C//DTD SVG 1.1//EN" "http://www.w3.org/Graphics/SVG/1.1/DTD/svg11.dtd">
<svg version="1.1" id="Layer_1" xmlns="http://www.w3.org/2000/svg" xmlns:xlink="http://www.w3.org/1999/xlink" x="0px" y="0px"
	 width="32px" height="32px" viewBox="16 16 32 32" enable-background="new 16 16 32 32" xml:space="preserve">
<g>
	<path d="M40.325,23.504c-0.497,0.22-1.029,0.368-1.588,0.435c0.571-0.343,1.009-0.885,1.216-1.531
		c-0.534,0.317-1.126,0.548-1.756,0.672c-0.505-0.538-1.224-0.874-2.02-0.874c-1.525,0-2.767,1.239-2.767,2.767
		c0,0.217,0.026,0.427,0.073,0.629c-2.299-0.114-4.336-1.215-5.702-2.89c-0.238,0.409-0.374,0.884-0.374,1.391
		c0,0.959,0.488,1.807,1.23,2.302c-0.453-0.014-0.88-0.139-1.252-0.346v0.035c0,1.339,0.953,2.457,2.218,2.711
		c-0.232,0.063-0.477,0.098-0.728,0.098c-0.179,0-0.353-0.018-0.521-0.05c0.352,1.1,1.373,1.898,2.583,1.921
		c-0.946,0.742-2.139,1.185-3.435,1.185c-0.222,0-0.442-0.014-0.659-0.04c1.223,0.783,2.678,1.242,4.241,1.242
		c5.087,0,7.868-4.214,7.868-7.869c0-0.12-0.003-0.238-0.008-0.359C39.485,24.546,39.954,24.059,40.325,23.504z"/>
	<path d="M47.984,18H15.978l16.003,27.717L47.984,18z M18.107,19.293h27.749L31.981,43.326L18.107,19.293z"/>
</g>
</svg>
