<?xml version="1.0" encoding="utf-8"?>
<!-- Generator: Adobe Illustrator 16.0.0, SVG Export Plug-In . SVG Version: 6.00 Build 0)  -->
<!DOCTYPE svg PUBLIC "-//W3C//DTD SVG 1.1//EN" "http://www.w3.org/Graphics/SVG/1.1/DTD/svg11.dtd">
<svg version="1.1" id="Layer_1" xmlns="http://www.w3.org/2000/svg" xmlns:xlink="http://www.w3.org/1999/xlink" x="0px" y="0px"
	 width="32px" height="32px" viewBox="16 16 32 32" enable-background="new 16 16 32 32" xml:space="preserve">
<g>
	<g>
		<polygon points="15.911,18 31.894,45.684 47.878,18 		"/>
		<path fill="#FFFFFF" d="M46.406,18.759H17.383L31.894,44.41L46.406,18.759z M19.313,19.956h25.162L31.894,42.193L19.313,19.956z"
			/>
	</g>
	<path fill="#FFFFFF" d="M40.23,23.496c-0.495,0.219-1.029,0.368-1.586,0.435c0.569-0.342,1.007-0.883,1.214-1.528
		c-0.533,0.316-1.124,0.546-1.752,0.67c-0.505-0.538-1.224-0.872-2.019-0.872c-1.525,0-2.764,1.237-2.764,2.763
		c0,0.217,0.025,0.428,0.071,0.628c-2.296-0.114-4.332-1.214-5.696-2.886c-0.237,0.408-0.374,0.883-0.374,1.389
		c0,0.958,0.488,1.805,1.229,2.3c-0.453-0.013-0.879-0.139-1.251-0.345v0.035c0,1.337,0.953,2.456,2.216,2.709
		c-0.232,0.063-0.476,0.097-0.728,0.097c-0.178,0-0.351-0.018-0.52-0.051c0.352,1.099,1.372,1.897,2.582,1.92
		c-0.945,0.741-2.136,1.184-3.432,1.184c-0.223,0-0.442-0.013-0.659-0.038c1.223,0.783,2.675,1.24,4.237,1.24
		c5.083,0,7.861-4.21,7.861-7.862c0-0.119-0.003-0.239-0.007-0.357C39.392,24.536,39.859,24.049,40.23,23.496z"/>
</g>
</svg>
